<?xml version="1.0" encoding="iso-8859-1"?>
<!-- Generator: Adobe Illustrator 19.0.0, SVG Export Plug-In . SVG Version: 6.00 Build 0)  -->
<svg version="1.1" id="Capa_1" xmlns="http://www.w3.org/2000/svg" xmlns:xlink="http://www.w3.org/1999/xlink" x="0px" y="0px"
	 viewBox="0 0 512 512" style="enable-background:new 0 0 512 512;" xml:space="preserve">
<circle style="fill:#F44336;" cx="256.045" cy="48" r="48"/>
<path style="fill:#455A64;" d="M289.997,238.048c-22.912-22.88-166.72-125.792-183.04-137.44c-7.069-5.302-17.098-3.869-22.4,3.2
	c-4.267,5.689-4.267,13.511,0,19.2c11.808,16.448,115.936,161.504,137.6,183.008c18.769,18.733,49.171,18.705,67.904-0.064
	S308.766,256.781,289.997,238.048z"/>
<path d="M256.045,96c-26.51,0-48-21.49-48-48s21.49-48,48-48s48,21.49,48,48S282.555,96,256.045,96z M256.045,32
	c-8.837,0-16,7.163-16,16s7.163,16,16,16c8.837,0,16-7.163,16-16S264.882,32,256.045,32z"/>
<path d="M256.045,512c-132.49-0.141-239.859-107.51-240-240c-0.221-39.893,9.689-79.19,28.8-114.208
	c4.419-7.652,14.205-10.273,21.857-5.854c7.382,4.263,10.125,13.564,6.239,21.15C56.403,203.42,47.837,237.453,48.045,272
	c-0.164,114.875,92.828,208.133,207.703,208.297c114.875,0.164,208.133-92.828,208.297-207.703
	c0.148-103.59-75.953-191.5-178.496-206.194c-8.789-0.916-15.171-8.784-14.255-17.573c0.916-8.789,8.784-15.171,17.573-14.255
	c0.357,0.037,0.712,0.086,1.066,0.148C421.067,53.412,512.22,174.87,493.528,306.005C476.679,424.211,375.446,512.022,256.045,512z"
	/>
<path d="M256.045,320c-12.728,0.014-24.941-5.027-33.952-14.016c-21.504-21.536-125.632-166.592-137.44-183.04
	c-5.302-7.069-3.869-17.098,3.2-22.4c5.689-4.267,13.511-4.267,19.2,0c16.32,11.68,160,114.592,183.04,137.6
	c18.698,18.792,18.622,49.184-0.17,67.882C280.923,314.981,268.741,320.006,256.045,320z M169.645,185.6
	c32.192,43.776,65.376,88,75.072,97.728c6.256,6.256,16.4,6.256,22.656,0s6.256-16.4,0-22.656
	C257.037,250.368,213.133,217.376,169.645,185.6z"/>
<g>
</g>
<g>
</g>
<g>
</g>
<g>
</g>
<g>
</g>
<g>
</g>
<g>
</g>
<g>
</g>
<g>
</g>
<g>
</g>
<g>
</g>
<g>
</g>
<g>
</g>
<g>
</g>
<g>
</g>
</svg>
